<?xml version="1.0" encoding="utf-8"?>
<!-- Generator: Adobe Illustrator 24.1.0, SVG Export Plug-In . SVG Version: 6.00 Build 0)  -->
<svg version="1.1" xmlns="http://www.w3.org/2000/svg" xmlns:xlink="http://www.w3.org/1999/xlink" x="0px" y="0px"
	 viewBox="0 0 247.2 92.2" style="enable-background:new 0 0 247.2 92.2;" xml:space="preserve">
<style type="text/css">
	.st0{fill:#FFFFFF;}
	.st1{fill:#30CFD0;}
	.st2{fill:#191970;}
	.st3{fill:#E6007E;}
</style>
<g id="Achtergrond">
</g>
<g id="artwork">
	<path class="st2" d="M115.2,28.7V25h28v3.8h-12v31.7H127V28.7H115.2z"/>
	<path class="st2" d="M164.1,55.1l1.5,2.9c-2.7,2-6.1,2.7-9.8,2.7c-6,0-11.9-3.1-11.9-9.2v-9.3c0-5.2,5.5-8.9,11.3-8.9
		c5.9,0,10.9,3.6,10.9,8.9v5.6h-18.1v3.6c0,3.9,3.8,5.8,8,5.8C159.5,57.2,162.3,56.3,164.1,55.1z M147.9,42.3v2.4h14.2v-2.4
		c0-3.2-3.2-5.4-7-5.4C151.4,36.8,148,39.1,147.9,42.3z"/>
	<path class="st2" d="M190.7,33.8v2.2l-14.5,20.8h15.5v3.5h-20.5v-2.6l14.6-20.7h-14.3v-3.3H190.7z"/>
	<path class="st2" d="M216.3,33.8v2.2l-14.5,20.8h15.5v3.5h-20.5v-2.6l14.6-20.7H197v-3.3H216.3z"/>
	<path class="st2" d="M244.2,41.8v18.5h-3.6l-0.3-3c-2,2.5-4.8,3.3-8.3,3.3c-5.8,0-9.4-2.6-9.4-7.3v-5.9l17.4-2.7v-2.9
		c0-3.2-2.1-4.8-6-4.8c-3.4,0-7.1,1.3-8.8,2.1l-1.3-3.1c2.3-1.3,6.7-2.8,10.5-2.8C240.4,33.3,244.2,36.3,244.2,41.8z M240,47.8
		l-13.2,2.1v3.2c0,2.9,2.3,4.2,6,4.2c3.5,0,7.2-1.8,7.2-4.7V47.8z"/>
	<polygon class="st0" points="13.8,25.3 12.3,28 50.9,28 50.9,89.7 53.6,89.7 53.6,28 58.2,28 92.3,28 90.7,25.3 	"/>
	<path class="st1" d="M90.7,25.3L79.8,6.4c-1.3-2.2-4.5-4-7-4H31.7c-2.5,0-5.7,1.8-7,4L13.8,25.3H90.7z"/>
	<path class="st2" d="M50.9,28l-38.6,0L4.2,42c-1.3,2.2-1.3,5.9,0,8.1l20.6,35.6c1.3,2.2,4.5,4,7,4h19.2V28z"/>
	<path class="st3" d="M100.4,42l-8.1-14l-34.1,0l-4.6,0v61.7h19.2c2.5,0,5.7-1.8,7-4l20.6-35.6C101.6,47.9,101.6,44.2,100.4,42z"/>
</g>
<g id="wsw_logo">
</g>
</svg>
