<?xml version="1.0" encoding="utf-8"?>
<!-- Generator: Adobe Illustrator 24.1.0, SVG Export Plug-In . SVG Version: 6.00 Build 0)  -->
<svg version="1.1" xmlns="http://www.w3.org/2000/svg" xmlns:xlink="http://www.w3.org/1999/xlink" x="0px" y="0px"
	 viewBox="0 0 101.3 90" style="enable-background:new 0 0 101.3 90;" xml:space="preserve">
<style type="text/css">
	.st0{fill:#FFFFFF;}
	.st1{fill:#30CFD0;}
	.st2{fill:#191970;}
	.st3{fill:#E6007E;}
</style>
<g id="Achtergrond">
</g>
<g id="artwork">
	<polygon class="st0" points="12.5,24.2 10.9,26.9 49.6,26.9 49.6,88.6 52.3,88.6 52.3,26.9 56.9,26.9 91,26.9 89.4,24.2 	"/>
	<path class="st1" d="M89.4,24.2L78.5,5.3c-1.3-2.2-4.5-4-7-4H30.4c-2.5,0-5.7,1.8-7,4L12.5,24.2H89.4z"/>
	<path class="st2" d="M49.6,26.9l-38.6,0l-8.1,14c-1.3,2.2-1.3,5.9,0,8.1l20.6,35.6c1.3,2.2,4.5,4,7,4h19.2V26.9z"/>
	<path class="st3" d="M99,40.9l-8.1-14l-34.1,0l-4.6,0v61.7h19.2c2.5,0,5.7-1.8,7-4L99,49C100.3,46.8,100.3,43.1,99,40.9z"/>
</g>
<g id="wsw_logo">
</g>
</svg>
